<mxfile host="app.diagrams.net" modified="2023-04-05T13:49:34.452Z" agent="5.0 (Windows NT 10.0; Win64; x64) AppleWebKit/537.36 (KHTML, like Gecko) Chrome/111.0.0.0 Safari/537.36" etag="8FrvmMPBClFce-U4rW89" version="20.8.23" type="github">
  <diagram name="Strona-1" id="x2b7fE9TygXWZ6NSjEAi">
    <mxGraphModel dx="1434" dy="796" grid="1" gridSize="10" guides="1" tooltips="1" connect="1" arrows="1" fold="1" page="1" pageScale="1" pageWidth="827" pageHeight="1169" math="0" shadow="0">
      <root>
        <mxCell id="0" />
        <mxCell id="1" parent="0" />
        <mxCell id="RyA42RISjkDqJ7F6aCs--2" style="edgeStyle=orthogonalEdgeStyle;rounded=0;orthogonalLoop=1;jettySize=auto;html=1;" edge="1" parent="1" source="RyA42RISjkDqJ7F6aCs--1" target="RyA42RISjkDqJ7F6aCs--3">
          <mxGeometry relative="1" as="geometry">
            <mxPoint x="430" y="310" as="targetPoint" />
          </mxGeometry>
        </mxCell>
        <mxCell id="RyA42RISjkDqJ7F6aCs--1" value="start" style="ellipse;whiteSpace=wrap;html=1;" vertex="1" parent="1">
          <mxGeometry x="370" y="140" width="120" height="80" as="geometry" />
        </mxCell>
        <mxCell id="RyA42RISjkDqJ7F6aCs--4" style="edgeStyle=orthogonalEdgeStyle;rounded=0;orthogonalLoop=1;jettySize=auto;html=1;" edge="1" parent="1" source="RyA42RISjkDqJ7F6aCs--3" target="RyA42RISjkDqJ7F6aCs--5">
          <mxGeometry relative="1" as="geometry">
            <mxPoint x="430" y="410" as="targetPoint" />
          </mxGeometry>
        </mxCell>
        <mxCell id="RyA42RISjkDqJ7F6aCs--3" value="pobierz a" style="rounded=0;whiteSpace=wrap;html=1;" vertex="1" parent="1">
          <mxGeometry x="370" y="280" width="120" height="60" as="geometry" />
        </mxCell>
        <mxCell id="RyA42RISjkDqJ7F6aCs--6" style="edgeStyle=orthogonalEdgeStyle;rounded=0;orthogonalLoop=1;jettySize=auto;html=1;" edge="1" parent="1" source="RyA42RISjkDqJ7F6aCs--5">
          <mxGeometry relative="1" as="geometry">
            <mxPoint x="320" y="430" as="targetPoint" />
          </mxGeometry>
        </mxCell>
        <mxCell id="RyA42RISjkDqJ7F6aCs--7" style="edgeStyle=orthogonalEdgeStyle;rounded=0;orthogonalLoop=1;jettySize=auto;html=1;exitX=1;exitY=0.5;exitDx=0;exitDy=0;" edge="1" parent="1" source="RyA42RISjkDqJ7F6aCs--5" target="RyA42RISjkDqJ7F6aCs--13">
          <mxGeometry relative="1" as="geometry">
            <mxPoint x="600" y="320" as="targetPoint" />
          </mxGeometry>
        </mxCell>
        <mxCell id="RyA42RISjkDqJ7F6aCs--5" value="a&amp;lt;0" style="rhombus;whiteSpace=wrap;html=1;" vertex="1" parent="1">
          <mxGeometry x="390" y="390" width="80" height="80" as="geometry" />
        </mxCell>
        <mxCell id="RyA42RISjkDqJ7F6aCs--8" value="N" style="text;html=1;align=center;verticalAlign=middle;resizable=0;points=[];autosize=1;strokeColor=none;fillColor=none;" vertex="1" parent="1">
          <mxGeometry x="365" y="385" width="30" height="30" as="geometry" />
        </mxCell>
        <mxCell id="RyA42RISjkDqJ7F6aCs--9" value="T" style="text;html=1;align=center;verticalAlign=middle;resizable=0;points=[];autosize=1;strokeColor=none;fillColor=none;" vertex="1" parent="1">
          <mxGeometry x="470" y="385" width="30" height="30" as="geometry" />
        </mxCell>
        <mxCell id="RyA42RISjkDqJ7F6aCs--11" style="edgeStyle=orthogonalEdgeStyle;rounded=0;orthogonalLoop=1;jettySize=auto;html=1;" edge="1" parent="1" source="RyA42RISjkDqJ7F6aCs--10" target="RyA42RISjkDqJ7F6aCs--12">
          <mxGeometry relative="1" as="geometry">
            <mxPoint x="260" y="630" as="targetPoint" />
            <Array as="points">
              <mxPoint x="270" y="600" />
            </Array>
          </mxGeometry>
        </mxCell>
        <mxCell id="RyA42RISjkDqJ7F6aCs--10" value="wypisz a" style="rounded=0;whiteSpace=wrap;html=1;" vertex="1" parent="1">
          <mxGeometry x="200" y="400" width="120" height="60" as="geometry" />
        </mxCell>
        <mxCell id="RyA42RISjkDqJ7F6aCs--12" value="stop" style="ellipse;whiteSpace=wrap;html=1;" vertex="1" parent="1">
          <mxGeometry x="340" y="560" width="120" height="80" as="geometry" />
        </mxCell>
        <mxCell id="RyA42RISjkDqJ7F6aCs--14" style="edgeStyle=orthogonalEdgeStyle;rounded=0;orthogonalLoop=1;jettySize=auto;html=1;entryX=0.442;entryY=-0.067;entryDx=0;entryDy=0;entryPerimeter=0;" edge="1" parent="1" source="RyA42RISjkDqJ7F6aCs--13" target="RyA42RISjkDqJ7F6aCs--10">
          <mxGeometry relative="1" as="geometry">
            <mxPoint x="600" y="30" as="targetPoint" />
            <Array as="points">
              <mxPoint x="600" y="100" />
              <mxPoint x="253" y="100" />
            </Array>
          </mxGeometry>
        </mxCell>
        <mxCell id="RyA42RISjkDqJ7F6aCs--13" value="a*(-1)" style="rounded=0;whiteSpace=wrap;html=1;" vertex="1" parent="1">
          <mxGeometry x="540" y="290" width="120" height="60" as="geometry" />
        </mxCell>
      </root>
    </mxGraphModel>
  </diagram>
</mxfile>
